<mxfile host="app.diagrams.net" agent="Mozilla/5.0 (Windows NT 10.0; Win64; x64) AppleWebKit/537.36 (KHTML, like Gecko) Chrome/134.0.0.0 Safari/537.36" version="26.2.9">
  <diagram name="Strona-1" id="TAWg3cv4MUI7SG6aaTCA">
    <mxGraphModel dx="2068" dy="1103" grid="1" gridSize="10" guides="1" tooltips="1" connect="1" arrows="1" fold="1" page="1" pageScale="1" pageWidth="827" pageHeight="1169" math="0" shadow="0">
      <root>
        <mxCell id="0" />
        <mxCell id="1" parent="0" />
        <mxCell id="b8mOVBxSiegJ0ctqpOjZ-24" value="Internet" style="ellipse;shape=cloud;whiteSpace=wrap;html=1;labelBackgroundColor=none;align=center;verticalAlign=middle;fontFamily=Lucida Console;" vertex="1" parent="1">
          <mxGeometry x="10" y="90" width="250" height="210" as="geometry" />
        </mxCell>
        <mxCell id="b8mOVBxSiegJ0ctqpOjZ-13" value="Intranet&lt;div&gt;(open)&lt;/div&gt;" style="ellipse;shape=cloud;whiteSpace=wrap;html=1;labelBackgroundColor=none;fontFamily=Lucida Console;" vertex="1" parent="1">
          <mxGeometry x="97" y="260" width="584" height="234" as="geometry" />
        </mxCell>
        <mxCell id="b8mOVBxSiegJ0ctqpOjZ-1" value="" style="sketch=0;points=[[0.5,0,0],[1,0.5,0],[0.5,1,0],[0,0.5,0],[0.145,0.145,0],[0.8555,0.145,0],[0.855,0.8555,0],[0.145,0.855,0]];verticalLabelPosition=bottom;html=1;verticalAlign=top;aspect=fixed;align=center;pointerEvents=1;shape=mxgraph.cisco19.rect;prIcon=vmanage;fillColor=#FAFAFA;strokeColor=#005073;" vertex="1" parent="1">
          <mxGeometry x="240" y="520" width="50" height="50" as="geometry" />
        </mxCell>
        <mxCell id="b8mOVBxSiegJ0ctqpOjZ-2" value="" style="sketch=0;points=[[0.5,0,0],[1,0.5,0],[0.5,1,0],[0,0.5,0],[0.145,0.145,0],[0.8555,0.145,0],[0.855,0.8555,0],[0.145,0.855,0]];verticalLabelPosition=bottom;html=1;verticalAlign=top;aspect=fixed;align=center;pointerEvents=1;shape=mxgraph.cisco19.rect;prIcon=vsmart;fillColor=#FAFAFA;strokeColor=#005073;" vertex="1" parent="1">
          <mxGeometry x="140" y="510" width="50" height="50" as="geometry" />
        </mxCell>
        <mxCell id="b8mOVBxSiegJ0ctqpOjZ-3" value="" style="sketch=0;points=[[0.5,0,0],[1,0.5,0],[0.5,1,0],[0,0.5,0],[0.145,0.145,0],[0.8555,0.145,0],[0.855,0.8555,0],[0.145,0.855,0]];verticalLabelPosition=bottom;html=1;verticalAlign=top;aspect=fixed;align=center;pointerEvents=1;shape=mxgraph.cisco19.rect;prIcon=vbond;fillColor=#FAFAFA;strokeColor=#005073;" vertex="1" parent="1">
          <mxGeometry x="67" y="470" width="50" height="50" as="geometry" />
        </mxCell>
        <mxCell id="b8mOVBxSiegJ0ctqpOjZ-6" value="" style="sketch=0;outlineConnect=0;fontColor=#232F3E;gradientColor=none;fillColor=#232F3D;strokeColor=none;dashed=0;verticalLabelPosition=bottom;verticalAlign=top;align=center;html=1;fontSize=12;fontStyle=0;aspect=fixed;pointerEvents=1;shape=mxgraph.aws4.git_repository;" vertex="1" parent="1">
          <mxGeometry x="86" y="90" width="60" height="78" as="geometry" />
        </mxCell>
        <mxCell id="b8mOVBxSiegJ0ctqpOjZ-9" value="" style="dashed=0;outlineConnect=0;html=1;align=center;labelPosition=center;verticalLabelPosition=bottom;verticalAlign=top;shape=mxgraph.weblogos.github" vertex="1" parent="1">
          <mxGeometry x="56" y="40" width="50" height="50" as="geometry" />
        </mxCell>
        <mxCell id="b8mOVBxSiegJ0ctqpOjZ-12" value="" style="endArrow=classic;html=1;rounded=0;strokeWidth=3;entryX=0.507;entryY=0.021;entryDx=0;entryDy=0;entryPerimeter=0;" edge="1" parent="1" target="b8mOVBxSiegJ0ctqpOjZ-22">
          <mxGeometry width="50" height="50" relative="1" as="geometry">
            <mxPoint x="77" y="100" as="sourcePoint" />
            <mxPoint x="80" y="290" as="targetPoint" />
          </mxGeometry>
        </mxCell>
        <mxCell id="b8mOVBxSiegJ0ctqpOjZ-27" value="workflow" style="edgeLabel;html=1;align=center;verticalAlign=middle;resizable=0;points=[];" vertex="1" connectable="0" parent="b8mOVBxSiegJ0ctqpOjZ-12">
          <mxGeometry x="-0.1884" y="1" relative="1" as="geometry">
            <mxPoint x="-1" y="-55" as="offset" />
          </mxGeometry>
        </mxCell>
        <mxCell id="b8mOVBxSiegJ0ctqpOjZ-15" value="" style="sketch=0;points=[[0.5,0,0],[1,0.5,0],[0.5,1,0],[0,0.5,0],[0.145,0.145,0],[0.8555,0.145,0],[0.855,0.8555,0],[0.145,0.855,0]];verticalLabelPosition=bottom;html=1;verticalAlign=top;aspect=fixed;align=center;pointerEvents=1;shape=mxgraph.cisco19.rect;prIcon=router;fillColor=#FAFAFA;strokeColor=#005073;" vertex="1" parent="1">
          <mxGeometry x="364" y="550" width="50" height="50" as="geometry" />
        </mxCell>
        <mxCell id="b8mOVBxSiegJ0ctqpOjZ-16" value="" style="sketch=0;points=[[0.5,0,0],[1,0.5,0],[0.5,1,0],[0,0.5,0],[0.145,0.145,0],[0.8555,0.145,0],[0.855,0.8555,0],[0.145,0.855,0]];verticalLabelPosition=bottom;html=1;verticalAlign=top;aspect=fixed;align=center;pointerEvents=1;shape=mxgraph.cisco19.rect;prIcon=router;fillColor=#FAFAFA;strokeColor=#005073;" vertex="1" parent="1">
          <mxGeometry x="440" y="550" width="50" height="50" as="geometry" />
        </mxCell>
        <mxCell id="b8mOVBxSiegJ0ctqpOjZ-17" value="" style="sketch=0;points=[[0.5,0,0],[1,0.5,0],[0.5,1,0],[0,0.5,0],[0.145,0.145,0],[0.8555,0.145,0],[0.855,0.8555,0],[0.145,0.855,0]];verticalLabelPosition=bottom;html=1;verticalAlign=top;aspect=fixed;align=center;pointerEvents=1;shape=mxgraph.cisco19.rect;prIcon=router;fillColor=#FAFAFA;strokeColor=#005073;" vertex="1" parent="1">
          <mxGeometry x="650" y="550" width="50" height="50" as="geometry" />
        </mxCell>
        <mxCell id="b8mOVBxSiegJ0ctqpOjZ-18" value="" style="sketch=0;points=[[0.5,0,0],[1,0.5,0],[0.5,1,0],[0,0.5,0],[0.145,0.145,0],[0.8555,0.145,0],[0.855,0.8555,0],[0.145,0.855,0]];verticalLabelPosition=bottom;html=1;verticalAlign=top;aspect=fixed;align=center;pointerEvents=1;shape=mxgraph.cisco19.rect;prIcon=router;fillColor=#FAFAFA;strokeColor=#005073;" vertex="1" parent="1">
          <mxGeometry x="750" y="550" width="50" height="50" as="geometry" />
        </mxCell>
        <mxCell id="b8mOVBxSiegJ0ctqpOjZ-22" value="self-hosted&lt;div&gt;runner&lt;/div&gt;" style="image;aspect=fixed;html=1;points=[];align=center;fontSize=12;image=img/lib/azure2/compute/Virtual_Machine.svg;" vertex="1" parent="1">
          <mxGeometry x="51.33" y="306" width="50.67" height="47" as="geometry" />
        </mxCell>
        <mxCell id="b8mOVBxSiegJ0ctqpOjZ-11" value="" style="dashed=0;outlineConnect=0;html=1;align=center;labelPosition=center;verticalLabelPosition=bottom;verticalAlign=top;shape=mxgraph.weblogos.github;labelBackgroundColor=none;" vertex="1" parent="1">
          <mxGeometry x="42" y="286" width="25" height="25" as="geometry" />
        </mxCell>
        <mxCell id="b8mOVBxSiegJ0ctqpOjZ-25" value="" style="endArrow=classic;html=1;rounded=0;edgeStyle=orthogonalEdgeStyle;curved=1;strokeWidth=3;" edge="1" parent="1" target="b8mOVBxSiegJ0ctqpOjZ-1">
          <mxGeometry width="50" height="50" relative="1" as="geometry">
            <mxPoint x="106" y="320" as="sourcePoint" />
            <mxPoint x="300" y="540" as="targetPoint" />
            <Array as="points" />
          </mxGeometry>
        </mxCell>
        <mxCell id="b8mOVBxSiegJ0ctqpOjZ-28" value="Intranet&lt;div&gt;(secured)&lt;/div&gt;" style="ellipse;shape=cloud;whiteSpace=wrap;html=1;labelBackgroundColor=none;fontFamily=Lucida Console;" vertex="1" parent="1">
          <mxGeometry x="680" y="260" width="460" height="224" as="geometry" />
        </mxCell>
        <mxCell id="b8mOVBxSiegJ0ctqpOjZ-29" value="" style="endArrow=none;html=1;rounded=0;entryX=0.55;entryY=0.95;entryDx=0;entryDy=0;entryPerimeter=0;exitX=0.8555;exitY=0.145;exitDx=0;exitDy=0;exitPerimeter=0;" edge="1" parent="1" source="b8mOVBxSiegJ0ctqpOjZ-18" target="b8mOVBxSiegJ0ctqpOjZ-28">
          <mxGeometry width="50" height="50" relative="1" as="geometry">
            <mxPoint x="720" y="566" as="sourcePoint" />
            <mxPoint x="770" y="516" as="targetPoint" />
          </mxGeometry>
        </mxCell>
        <mxCell id="b8mOVBxSiegJ0ctqpOjZ-31" value="" style="endArrow=none;html=1;rounded=0;exitX=0.76;exitY=0.02;exitDx=0;exitDy=0;exitPerimeter=0;entryX=0.343;entryY=0.862;entryDx=0;entryDy=0;entryPerimeter=0;" edge="1" parent="1" source="b8mOVBxSiegJ0ctqpOjZ-17" target="b8mOVBxSiegJ0ctqpOjZ-28">
          <mxGeometry width="50" height="50" relative="1" as="geometry">
            <mxPoint x="770" y="390" as="sourcePoint" />
            <mxPoint x="820" y="340" as="targetPoint" />
          </mxGeometry>
        </mxCell>
        <mxCell id="b8mOVBxSiegJ0ctqpOjZ-32" value="" style="endArrow=none;html=1;rounded=0;exitX=0.145;exitY=0.145;exitDx=0;exitDy=0;exitPerimeter=0;entryX=0.763;entryY=0.854;entryDx=0;entryDy=0;entryPerimeter=0;" edge="1" parent="1" source="b8mOVBxSiegJ0ctqpOjZ-18" target="b8mOVBxSiegJ0ctqpOjZ-13">
          <mxGeometry width="50" height="50" relative="1" as="geometry">
            <mxPoint x="770" y="390" as="sourcePoint" />
            <mxPoint x="820" y="340" as="targetPoint" />
          </mxGeometry>
        </mxCell>
        <mxCell id="b8mOVBxSiegJ0ctqpOjZ-33" value="" style="endArrow=none;html=1;rounded=0;exitX=0.145;exitY=0.145;exitDx=0;exitDy=0;exitPerimeter=0;entryX=0.673;entryY=0.921;entryDx=0;entryDy=0;entryPerimeter=0;" edge="1" parent="1" source="b8mOVBxSiegJ0ctqpOjZ-17" target="b8mOVBxSiegJ0ctqpOjZ-13">
          <mxGeometry width="50" height="50" relative="1" as="geometry">
            <mxPoint x="770" y="390" as="sourcePoint" />
            <mxPoint x="820" y="340" as="targetPoint" />
          </mxGeometry>
        </mxCell>
        <mxCell id="b8mOVBxSiegJ0ctqpOjZ-34" value="" style="endArrow=none;html=1;rounded=0;exitX=0.8555;exitY=0.145;exitDx=0;exitDy=0;exitPerimeter=0;entryX=0.356;entryY=0.885;entryDx=0;entryDy=0;entryPerimeter=0;" edge="1" parent="1" source="b8mOVBxSiegJ0ctqpOjZ-1" target="b8mOVBxSiegJ0ctqpOjZ-13">
          <mxGeometry width="50" height="50" relative="1" as="geometry">
            <mxPoint x="770" y="390" as="sourcePoint" />
            <mxPoint x="820" y="340" as="targetPoint" />
          </mxGeometry>
        </mxCell>
        <mxCell id="b8mOVBxSiegJ0ctqpOjZ-35" value="" style="endArrow=none;html=1;rounded=0;exitX=0.941;exitY=0.766;exitDx=0;exitDy=0;exitPerimeter=0;entryX=0.079;entryY=0.355;entryDx=0;entryDy=0;entryPerimeter=0;" edge="1" parent="1" source="b8mOVBxSiegJ0ctqpOjZ-22" target="b8mOVBxSiegJ0ctqpOjZ-13">
          <mxGeometry width="50" height="50" relative="1" as="geometry">
            <mxPoint x="770" y="390" as="sourcePoint" />
            <mxPoint x="820" y="340" as="targetPoint" />
          </mxGeometry>
        </mxCell>
        <mxCell id="b8mOVBxSiegJ0ctqpOjZ-36" value="" style="endArrow=none;html=1;rounded=0;exitX=0.8555;exitY=0.145;exitDx=0;exitDy=0;exitPerimeter=0;entryX=0.13;entryY=0.77;entryDx=0;entryDy=0;entryPerimeter=0;" edge="1" parent="1" source="b8mOVBxSiegJ0ctqpOjZ-3" target="b8mOVBxSiegJ0ctqpOjZ-13">
          <mxGeometry width="50" height="50" relative="1" as="geometry">
            <mxPoint x="770" y="390" as="sourcePoint" />
            <mxPoint x="820" y="340" as="targetPoint" />
          </mxGeometry>
        </mxCell>
        <mxCell id="b8mOVBxSiegJ0ctqpOjZ-37" value="" style="endArrow=none;html=1;rounded=0;exitX=0.8555;exitY=0.145;exitDx=0;exitDy=0;exitPerimeter=0;entryX=0.228;entryY=0.821;entryDx=0;entryDy=0;entryPerimeter=0;" edge="1" parent="1" source="b8mOVBxSiegJ0ctqpOjZ-2" target="b8mOVBxSiegJ0ctqpOjZ-13">
          <mxGeometry width="50" height="50" relative="1" as="geometry">
            <mxPoint x="770" y="390" as="sourcePoint" />
            <mxPoint x="820" y="340" as="targetPoint" />
          </mxGeometry>
        </mxCell>
        <mxCell id="b8mOVBxSiegJ0ctqpOjZ-38" value="" style="sketch=0;points=[[0.5,0,0],[1,0.5,0],[0.5,1,0],[0,0.5,0],[0.145,0.145,0],[0.8555,0.145,0],[0.855,0.8555,0],[0.145,0.855,0]];verticalLabelPosition=bottom;html=1;verticalAlign=top;aspect=fixed;align=center;pointerEvents=1;shape=mxgraph.cisco19.rect;prIcon=router;fillColor=#FAFAFA;strokeColor=#005073;" vertex="1" parent="1">
          <mxGeometry x="490" y="104" width="50" height="50" as="geometry" />
        </mxCell>
        <mxCell id="b8mOVBxSiegJ0ctqpOjZ-39" value="" style="sketch=0;points=[[0.5,0,0],[1,0.5,0],[0.5,1,0],[0,0.5,0],[0.145,0.145,0],[0.8555,0.145,0],[0.855,0.8555,0],[0.145,0.855,0]];verticalLabelPosition=bottom;html=1;verticalAlign=top;aspect=fixed;align=center;pointerEvents=1;shape=mxgraph.cisco19.rect;prIcon=router;fillColor=#FAFAFA;strokeColor=#005073;" vertex="1" parent="1">
          <mxGeometry x="610" y="104" width="50" height="50" as="geometry" />
        </mxCell>
        <mxCell id="b8mOVBxSiegJ0ctqpOjZ-40" value="" style="sketch=0;points=[[0.5,0,0],[1,0.5,0],[0.5,1,0],[0,0.5,0],[0.145,0.145,0],[0.8555,0.145,0],[0.855,0.8555,0],[0.145,0.855,0]];verticalLabelPosition=bottom;html=1;verticalAlign=top;aspect=fixed;align=center;pointerEvents=1;shape=mxgraph.cisco19.rect;prIcon=router;fillColor=#FAFAFA;strokeColor=#005073;" vertex="1" parent="1">
          <mxGeometry x="750" y="104" width="50" height="50" as="geometry" />
        </mxCell>
        <mxCell id="b8mOVBxSiegJ0ctqpOjZ-41" value="" style="endArrow=none;html=1;rounded=0;entryX=0.855;entryY=0.8555;entryDx=0;entryDy=0;entryPerimeter=0;exitX=0.5;exitY=0.116;exitDx=0;exitDy=0;exitPerimeter=0;" edge="1" parent="1" source="b8mOVBxSiegJ0ctqpOjZ-28" target="b8mOVBxSiegJ0ctqpOjZ-40">
          <mxGeometry width="50" height="50" relative="1" as="geometry">
            <mxPoint x="770" y="490" as="sourcePoint" />
            <mxPoint x="820" y="440" as="targetPoint" />
          </mxGeometry>
        </mxCell>
        <mxCell id="b8mOVBxSiegJ0ctqpOjZ-42" value="" style="endArrow=none;html=1;rounded=0;entryX=0.855;entryY=0.8555;entryDx=0;entryDy=0;entryPerimeter=0;exitX=0.276;exitY=0.196;exitDx=0;exitDy=0;exitPerimeter=0;" edge="1" parent="1" source="b8mOVBxSiegJ0ctqpOjZ-28" target="b8mOVBxSiegJ0ctqpOjZ-39">
          <mxGeometry width="50" height="50" relative="1" as="geometry">
            <mxPoint x="770" y="490" as="sourcePoint" />
            <mxPoint x="820" y="440" as="targetPoint" />
          </mxGeometry>
        </mxCell>
        <mxCell id="b8mOVBxSiegJ0ctqpOjZ-43" value="" style="endArrow=none;html=1;rounded=0;entryX=0.855;entryY=0.8555;entryDx=0;entryDy=0;entryPerimeter=0;exitX=0.096;exitY=0.308;exitDx=0;exitDy=0;exitPerimeter=0;" edge="1" parent="1" source="b8mOVBxSiegJ0ctqpOjZ-28" target="b8mOVBxSiegJ0ctqpOjZ-38">
          <mxGeometry width="50" height="50" relative="1" as="geometry">
            <mxPoint x="770" y="490" as="sourcePoint" />
            <mxPoint x="820" y="440" as="targetPoint" />
          </mxGeometry>
        </mxCell>
        <mxCell id="b8mOVBxSiegJ0ctqpOjZ-44" value="" style="endArrow=none;html=1;rounded=0;entryX=0.145;entryY=0.855;entryDx=0;entryDy=0;entryPerimeter=0;exitX=0.4;exitY=0.1;exitDx=0;exitDy=0;exitPerimeter=0;" edge="1" parent="1" source="b8mOVBxSiegJ0ctqpOjZ-13" target="b8mOVBxSiegJ0ctqpOjZ-38">
          <mxGeometry width="50" height="50" relative="1" as="geometry">
            <mxPoint x="770" y="490" as="sourcePoint" />
            <mxPoint x="820" y="440" as="targetPoint" />
          </mxGeometry>
        </mxCell>
        <mxCell id="b8mOVBxSiegJ0ctqpOjZ-45" value="" style="endArrow=none;html=1;rounded=0;entryX=0.145;entryY=0.855;entryDx=0;entryDy=0;entryPerimeter=0;exitX=0.625;exitY=0.2;exitDx=0;exitDy=0;exitPerimeter=0;" edge="1" parent="1" source="b8mOVBxSiegJ0ctqpOjZ-13" target="b8mOVBxSiegJ0ctqpOjZ-39">
          <mxGeometry width="50" height="50" relative="1" as="geometry">
            <mxPoint x="770" y="490" as="sourcePoint" />
            <mxPoint x="820" y="440" as="targetPoint" />
          </mxGeometry>
        </mxCell>
        <mxCell id="b8mOVBxSiegJ0ctqpOjZ-46" value="" style="endArrow=none;html=1;rounded=0;entryX=0.145;entryY=0.855;entryDx=0;entryDy=0;entryPerimeter=0;exitX=0.88;exitY=0.25;exitDx=0;exitDy=0;exitPerimeter=0;" edge="1" parent="1" source="b8mOVBxSiegJ0ctqpOjZ-13" target="b8mOVBxSiegJ0ctqpOjZ-40">
          <mxGeometry width="50" height="50" relative="1" as="geometry">
            <mxPoint x="770" y="490" as="sourcePoint" />
            <mxPoint x="820" y="440" as="targetPoint" />
          </mxGeometry>
        </mxCell>
        <mxCell id="b8mOVBxSiegJ0ctqpOjZ-47" value="" style="endArrow=none;html=1;rounded=0;entryX=0.495;entryY=0.953;entryDx=0;entryDy=0;entryPerimeter=0;" edge="1" parent="1" target="b8mOVBxSiegJ0ctqpOjZ-13">
          <mxGeometry width="50" height="50" relative="1" as="geometry">
            <mxPoint x="389" y="550" as="sourcePoint" />
            <mxPoint x="439" y="500" as="targetPoint" />
          </mxGeometry>
        </mxCell>
        <mxCell id="b8mOVBxSiegJ0ctqpOjZ-48" value="" style="endArrow=none;html=1;rounded=0;entryX=0.604;entryY=0.949;entryDx=0;entryDy=0;entryPerimeter=0;exitX=0.5;exitY=0;exitDx=0;exitDy=0;exitPerimeter=0;" edge="1" parent="1" source="b8mOVBxSiegJ0ctqpOjZ-16" target="b8mOVBxSiegJ0ctqpOjZ-13">
          <mxGeometry width="50" height="50" relative="1" as="geometry">
            <mxPoint x="430" y="540" as="sourcePoint" />
            <mxPoint x="480" y="490" as="targetPoint" />
          </mxGeometry>
        </mxCell>
      </root>
    </mxGraphModel>
  </diagram>
</mxfile>
